<svg id="Capa_1" enable-background="new 0 0 512 512" height="512" viewBox="0 0 512 512" width="512" xmlns="http://www.w3.org/2000/svg"><g><path d="m262.613 63.224c-.987-.876-59.339-52.876-60.206-53.645-15.749-13.962-39.813-12.468-53.732 3.225-10.517 11.86-12.259 28.509-5.722 41.946-75.995 9.129-135.096 73.99-135.096 152.405 0 84.647 68.866 153.513 153.513 153.513 20.988 0 38.063-17.075 38.063-38.063 0-20.987-17.075-38.062-38.063-38.062-42.672 0-77.388-34.716-77.388-77.388 0-36.653 25.622-67.414 59.89-75.368-7.547 13.724-6.119 31.358 4.802 43.674 13.86 15.63 37.907 17.258 53.738 3.221 3.09-2.741 55.836-54.359 60.672-58.921 16.588-15.211 16.447-41.532-.471-56.537z" fill="#00ddc0"/><path d="m504.143 304.845c0-84.647-68.866-153.513-153.513-153.513-20.988 0-38.063 17.075-38.063 38.063 0 20.987 17.075 38.062 38.063 38.062 42.672 0 77.388 34.716 77.388 77.388 0 36.653-25.622 67.414-59.89 75.368 7.547-13.724 6.119-31.358-4.802-43.675-13.86-15.63-37.908-17.257-53.738-3.22-3.099 2.749-55.821 54.346-60.672 58.921-16.588 15.21-16.446 41.531.472 56.537.987.876 59.339 52.876 60.206 53.645 15.749 13.962 39.813 12.468 53.732-3.225 10.517-11.86 12.259-28.509 5.722-41.946 75.994-9.129 135.095-73.99 135.095-152.405z" fill="#00ba9f"/></g></svg>