<svg height="512" viewBox="0 0 64 64" width="512" xmlns="http://www.w3.org/2000/svg"><g id="flat"><g fill="#87cee9"><path d="m11.394 18h7.211v2h-7.211z" transform="matrix(.555 -.832 .832 .555 -9.129 20.941)"/><path d="m22 15.394h2v7.211h-2z" transform="matrix(.832 -.555 .555 .832 -6.676 15.949)"/><path d="m18 12h2v3h-2z"/></g><path d="m17 15h4v7h-4z" fill="#3881a5"/><path d="m55.172 33h5.657v2h-5.657z" fill="#87cee9" transform="matrix(.707 -.707 .707 .707 -7.054 50.971)"/><path d="m3 43 2.4 6h-2.4v4h47c3.161 0 6.373-1.289 8-4l3-6z" fill="#195c85"/><path d="m59 47 2-4h-58l1.6 4z" fill="#aabece"/><path d="m45 43v-3l2-2h4l5 5z" fill="#3881a5"/><path d="m51.672 35.379h5.657v4.243h-5.657z" fill="#195c85" transform="matrix(.707 -.707 .707 .707 -10.554 49.521)"/><path d="m41 39v4h-28v-4l2-4h24z" fill="#195c85"/><path d="m24 38v2h-11v-1l.5-1z" fill="#fcf05a"/><path d="m26 38h2v2h-2z" fill="#fcf05a"/><path d="m30 38h2v2h-2z" fill="#fcf05a"/><path d="m17 31h20v4h-20z" fill="#3881a5"/><path d="m8 40h2v3h-2z" fill="#87cee9"/><path d="m4 40h2v3h-2z" fill="#87cee9"/><path d="m25 27h10v4h-10z" fill="#195c85"/><path d="m29 23h4v4h-4z" fill="#aabece"/><path d="m19 31-2-4v-5h4v3l4 6z" fill="#aabece"/><path d="m11 21h16v2h-16z" fill="#195c85"/><path d="m14 14h10v2h-10z" fill="#195c85"/></g></svg>